<?xml version="1.0" standalone="yes"?>
<svg xmlns="http://www.w3.org/2000/svg" width="622" height="623">
<path style="fill:#171749; stroke:none;" d="M0 0L0 623L622 623L622 0L0 0z"/>
<path style="fill:#5e637e; stroke:none;" d="M310 174L311 175L310 174z"/>
<path style="fill:#24dd7a; stroke:none;" d="M216 222C226.927 231.054 243.295 236.4 256 242.753C259.905 244.706 266.465 249.71 271 248.621C277.991 246.943 285.614 237.167 291 232.579C294.118 229.923 308.411 214.241 311.744 223.12C313.234 227.089 307.456 230.743 304.999 232.87C297.03 239.767 287.119 246.385 281 255C288.831 259.571 301.888 268.817 311 269.397C319.024 269.907 330.938 260.778 338 257.247C360.569 245.962 384.216 235.715 406 223L406 221C383.134 211.48 361.159 198.832 339 187.753C331.432 183.969 320.49 175.602 312 175.028C303.837 174.476 291.21 184.148 284 187.753C261.424 199.041 237.796 209.279 216 222z"/>
<path style="fill:#5e637e; stroke:none;" d="M312 174L313 175L312 174M308 175L309 176L308 175M314 175L315 176L314 175M306 176L307 177L306 176M316 176L317 177L316 176M304 177L305 178L304 177M318 177L319 178L318 177M302 178L303 179L302 178M320 178L321 179L320 178M300 179L301 180L300 179M322 179L323 180L322 179M298 180L299 181L298 180M324 180L325 181L324 180M296 181L297 182L296 181M326 181L327 182L326 181M294 182L295 183L294 182M328 182L329 183L328 182M292 183L293 184L292 183M330 183L331 184L330 183M290 184L291 185L290 184M332 184L333 185L332 184M288 185L289 186L288 185M334 185L335 186L334 185M286 186L287 187L286 186M336 186L337 187L336 186M284 187L285 188L284 187M338 187L339 188L338 187M282 188L283 189L282 188M340 188L341 189L340 188M280 189L281 190L280 189M342 189L343 190L342 189M278 190L279 191L278 190M344 190L345 191L344 190M276 191L277 192L276 191M346 191L347 192L346 191M274 192L275 193L274 192M348 192L349 193L348 192M272 193L273 194L272 193M350 193L351 194L350 193M270 194L271 195L270 194M352 194L353 195L352 194M268 195L269 196L268 195M354 195L355 196L354 195M266 196L267 197L266 196M356 196L357 197L356 196M264 197L265 198L264 197M358 197L359 198L358 197M262 198L263 199L262 198M360 198L361 199L360 198M260 199L261 200L260 199M362 199L363 200L362 199M258 200L259 201L258 200M364 200L365 201L364 200M256 201L257 202L256 201M366 201L367 202L366 201M254 202L255 203L254 202M368 202L369 203L368 202M252 203L253 204L252 203M370 203L371 204L370 203M250 204L251 205L250 204M372 204L373 205L372 204M248 205L249 206L248 205M374 205L375 206L374 205M246 206L247 207L246 206M376 206L377 207L376 206M244 207L245 208L244 207M378 207L379 208L378 207M242 208L243 209L242 208M380 208L381 209L380 208M240 209L241 210L240 209M382 209L383 210L382 209M238 210L239 211L238 210M384 210L385 211L384 210M236 211L237 212L236 211M386 211L387 212L386 211M234 212L235 213L234 212M388 212L389 213L388 212M232 213L233 214L232 213M390 213L391 214L390 213M230 214L231 215L230 214M392 214L393 215L392 214M228 215L229 216L228 215M394 215L395 216L394 215M226 216L227 217L226 216M396 216L397 217L396 216M224 217L225 218L224 217M398 217L399 218L398 217M222 218L223 219L222 218M400 218L401 219L400 218M220 219L221 220L220 219M307.667 219.333L308.333 219.667L307.667 219.333M402 219L403 220L402 219M218 220L219 221L218 220M305 220L306 221L305 220M310 220L311 221L310 220M404 220L405 221L404 220M216 221L217 222L216 221M303 221L304 222L303 221M406 221L408 223L406 221M215 222L216 223L215 222M302 222L303 223L302 222M312 222L312 226L313 226L312 222z"/>
<path style="fill:#a1a1b9; stroke:none;" d="M406 222L407 223L406 222z"/>
<path style="fill:#5e637e; stroke:none;" d="M217 223L218 224L217 223M301 223L302 224L301 223M405 223L406 224L405 223M219 224L220 225L219 224M300 224L301 225L300 224M403 224L404 225L403 224M221 225L222 226L221 225M299 225L300 226L299 225M401 225L402 226L401 225M223 226L224 227L223 226M399 226L400 227L399 226M225 227L226 228L225 227M296 227L297 228L296 227M311 227L312 228L311 227M397 227L398 228L397 227M227 228L228 229L227 228M295 228L296 229L295 228M310 228L311 229L310 228M395 228L396 229L395 228M229 229L230 230L229 229M294 229L295 230L294 229M393 229L394 230L393 229M231 230L232 231L231 230M293 230L294 231L293 230M391 230L392 231L391 230M233 231L234 232L233 231M292 231L293 232L292 231M306 231L307 232L306 231M389 231L390 232L389 231M235 232L236 233L235 232M305 232L306 233L305 232M387 232L388 233L387 232M237 233L238 234L237 233M289 233L290 234L289 233M304 233L305 234L304 233M385 233L386 234L385 233M239 234L240 235L239 234M288 234L289 235L288 234M303 234L304 235L303 234M382.667 234.333L383.333 234.667L382.667 234.333M241 235L242 236L241 235M287 235L288 236L287 235M381 235L382 236L381 235M243 236L244 237L243 236M286 236L287 237L286 236M379 236L380 237L379 236M245 237L246 238L245 237M299 237L300 238L299 237M377 237L378 238L377 237M247 238L248 239L247 238M298 238L299 239L298 238M375 238L376 239L375 238M249 239L250 240L249 239M282 239L283 240L282 239M297 239L298 240L297 239M373 239L374 240L373 239M251 240L252 241L251 240M281 240L282 241L281 240M296 240L297 241L296 240M371 240L372 241L371 240M253 241L254 242L253 241M280 241L281 242L280 241M295 241L296 242L295 241M369 241L370 242L369 241M255 242L256 243L255 242M293 242L294 243L293 242M366.667 242.333L367.333 242.667L366.667 242.333M257 243L258 244L257 243M292 243L293 244L292 243M365 243L366 244L365 243M259 244L260 245L259 244M291 244L292 245L291 244M363 244L364 245L363 244M261 245L262 246L261 245M290 245L291 246L290 245M361 245L362 246L361 245M263 246L264 247L263 246M274 246L275 247L274 246M289 246L290 247L289 246M359 246L360 247L359 246M381.333 246.667L381.667 247.333L381.333 246.667M265 247L266 248L265 247M273 247L274 248L273 247M288 247L289 248L288 247M357 247L358 248L357 247M379 247L380 248L379 247z"/>
<path style="fill:#24dd7a; stroke:none;" d="M280 267C280.802 277.083 288.735 294.356 285.357 303.907C282.126 313.042 265.795 312.625 262.313 303.96C257.196 291.226 272.167 272.823 266.396 260.39C263.913 255.041 250.375 250.549 245 249C245 267.007 239.497 294.571 252.185 308.999C278.888 339.365 350.548 340.074 375.649 306.985C385.272 294.301 385.41 261.918 381 247L332 271.398L312 280.864L280 267z"/>
<path style="fill:#5e637e; stroke:none;" d="M244 248L244 294L245 294L246 248L244 248M267 248L268 249L267 248M272 248L273 249L272 248M355 248L356 249L355 248M377 248L378 249L377 248M247 249L248 250L247 249M269 249L270 250L269 249M285 249L286 250L285 249M353 249L354 250L353 249M375 249L376 250L375 249M249 250L250 251L249 250M284 250L285 251L284 250M351 250L352 251L351 250M373 250L374 251L373 250M251 251L252 252L251 251M283 251L284 252L283 251M349 251L350 252L349 251M371 251L372 252L371 251M253 252L254 253L253 252M282 252L283 253L282 252M347 252L348 253L347 252M369 252L370 253L369 252M255 253L256 254L255 253M281 253L282 254L281 253M345 253L346 254L345 253M367 253L368 254L367 253M257 254L258 255L257 254M280 254L281 255L280 254M343 254L344 255L343 254M365 254L366 255L365 254M259 255L260 256L259 255M281 255L282 256L281 255M341 255L342 256L341 255M363 255L364 256L363 255M261 256L262 257L261 256M283 256L284 257L283 256M339 256L340 257L339 256M361 256L362 257L361 256M263 257L264 258L263 257M285 257L286 258L285 257M337 257L338 258L337 257M359 257L360 258L359 257M265 258L266 259L265 258M287 258L288 259L287 258M335 258L336 259L335 258M357 258L358 259L357 258M267 259L267 263L268 263L267 259M289 259L290 260L289 259M333 259L334 260L333 259M355 259L356 260L355 259M291 260L292 261L291 260M331 260L332 261L331 260M353 260L354 261L353 260M293 261L294 262L293 261M329 261L330 262L329 261M351 261L352 262L351 261M295 262L296 263L295 262M327 262L328 263L327 262M349 262L350 263L349 262M297 263L298 264L297 263M325 263L326 264L325 263M347 263L348 264L347 263M299 264L300 265L299 264M323 264L324 265L323 264M345 264L346 265L345 264M301 265L302 266L301 265M321 265L322 266L321 265M343 265L344 266L343 265M279 268L282 267L279 268M303 266L304 267L303 266M319 266L320 267L319 266M341 266L342 267L341 266M266 267L266 270L267 270L266 267M282.667 267.333L283.333 267.667L282.667 267.333M305 267L306 268L305 267M317 267L318 268L317 267M339 267L340 268L339 267M285 268L286 269L285 268M307 268L308 269L307 268M315 268L316 269L315 268M337 268L338 269L337 268M286.667 269.333L287.333 269.667L286.667 269.333M309 269L310 270L309 269M313 269L314 270L313 269M335 269L336 270L335 269M289 270L290 271L289 270M311 270L312 271L311 270M333 270L334 271L333 270M280.333 271.667L280.667 272.333L280.333 271.667M291 271L292 272L291 271M331.667 271.333L332.333 271.667L331.667 271.333M293 272L294 273L293 272M329 272L330 273L329 272M294.667 273.333L295.333 273.667L294.667 273.333M327 273L328 274L327 273M265 274L265 277L266 277L265 274M297 274L298 275L297 274M325 274L326 275L325 274M298.667 275.333L299.333 275.667L298.667 275.333M323 275L324 276L323 275M281 276L281 279L282 279L281 276M301 276L302 277L301 276M321 276L322 277L321 276M302.667 277.333L303.333 277.667L302.667 277.333M319.667 277.333L320.333 277.667L319.667 277.333M305 278L306 279L305 278M317.667 278.333L318.333 278.667L317.667 278.333M307 279L308 280L307 279M315.667 279.333L316.333 279.667L315.667 279.333M309 280L310 281L309 280M313.667 280.333L314.333 280.667L313.667 280.333M264 281L264 284L265 284L264 281M310 281L310 282L313 282L310 281M282 282L282 285L283 285L282 282M283 287L283 290L284 290L283 287M263 288L263 291L264 291L263 288M381 292L381 296L382 296L381 292M262 294L262 298L263 298L262 294M284.333 294.667L284.667 295.333L284.333 294.667M245 297L246 298L245 297M380 298L381 299L380 298M285 299L285 302L286 302L285 299M246 300L247 301L246 300M379.333 300.667L379.667 301.333L379.333 300.667M247 302L248 303L247 302M261 302L261 305L262 305L261 302M378.333 302.667L378.667 303.333L378.333 302.667M248 304L249 305L248 304M377 304L378 305L377 304M249 305L250 306L249 305M262 305L263 306L262 305M285 305L286 306L285 305M263 306L264 307L263 306M284 306L285 307L284 306M376 306L377 307L376 306M250 307L251 308L250 307M264 307L265 308L264 307M282 307L283 308L282 307M375 307L376 308L375 307M251 308L252 309L251 308M266 308L267 309L266 308M281 308L282 309L281 308M374 308L375 309L374 308M252 309L253 310L252 309M267 309L268 310L267 309M279 309L280 310L279 309M373 309L374 310L373 309M253 310L254 311L253 310M270 310L270 311L277 311L270 310z"/>
<path style="fill:#a1a1b9; stroke:none;" d="M372 310L373 311L372 310z"/>
<path style="fill:#5e637e; stroke:none;" d="M254 311L255 312L254 311M255 312L256 313L255 312M370 312L371 313L370 312M256 313L257 314L256 313M369 313L370 314L369 313M257 314L258 315L257 314M368 314L369 315L368 314M367 315L368 316L367 315M260 316L261 317L260 316M365 316L366 317L365 316M261 317L262 318L261 317M364 317L365 318L364 317M263 318L264 319L263 318M362 318L363 319L362 318M264 319L265 320L264 319M361 319L362 320L361 319M266.667 320.333L267.333 320.667L266.667 320.333M359 320L360 321L359 320M268 321L269 322L268 321M357 321L358 322L357 321M270.667 322.333L271.333 322.667L270.667 322.333M354.667 322.333L355.333 322.667L354.667 322.333M273 323L274 324L273 323M352.667 323.333L353.333 323.667L352.667 323.333M275.667 324.333L276.333 324.667L275.667 324.333M349.667 324.333L350.333 324.667L349.667 324.333M278 325L279 326L278 325M347 325L348 326L347 325M281.667 326.333L282.333 326.667L281.667 326.333M343.667 326.333L344.333 326.667L343.667 326.333M284.667 327.333L285.333 327.667L284.667 327.333M340.667 327.333L341.333 327.667L340.667 327.333M288.667 328.333L289.333 328.667L288.667 328.333M336.667 328.333L337.333 328.667L336.667 328.333M293.667 329.333L294.333 329.667L293.667 329.333M331.667 329.333L332.333 329.667L331.667 329.333M299 330L299 331L306 331L299 330M320 330L320 331L327 331L320 330M389 365L390 366L389 365z"/>
<path style="fill:#a1a1b9; stroke:none;" d="M390 365L390 366L395 368L390 365M424 365L424 366L427 366L424 365z"/>
<path style="fill:#5e637e; stroke:none;" d="M427 365L429 367L427 365M193 366L193 401L194 401L193 366z"/>
<path style="fill:#f7f7fb; stroke:none;" d="M194 366L194 401L200 401L200 366L194 366z"/>
<path style="fill:#a1a1b9; stroke:none;" d="M200 366L200 401L201 401L200 366z"/>
<path style="fill:#5e637e; stroke:none;" d="M220 366L207 380L220 366z"/>
<path style="fill:#f7f7fb; stroke:none;" d="M203 380L203 387C214.249 388.736 217.31 400.99 230 401L213 384L213 383L230 366C217.31 366.01 214.249 378.264 203 380z"/>
<path style="fill:#a1a1b9; stroke:none;" d="M230 366L231 367L230 366z"/>
<path style="fill:#5e637e; stroke:none;" d="M239 366L240 367L239 366z"/>
<path style="fill:#f7f7fb; stroke:none;" d="M234 395L234 401C242.256 401 254.285 403.209 261.985 399.991C268.241 397.376 270.093 388.581 265.347 383.569C258.999 376.863 248.8 383.531 242.337 378.972C238.943 376.578 242.163 373.068 245.019 372.318C251.037 370.738 258.791 372 265 372L265 366C257.647 366 245.654 363.717 239.019 367.179C233.044 370.296 231.607 378.767 236.419 383.581C242.979 390.145 253.111 383.407 259.663 388.028C263.057 390.422 259.837 393.932 256.981 394.682C250.096 396.49 241.109 395 234 395z"/>
<path style="fill:#a1a1b9; stroke:none;" d="M265 366L265 372L242 372L242 373C247.795 373 269.213 376.405 265 366M278 366L279 367L278 366z"/>
<path style="fill:#f7f7fb; stroke:none;" d="M305 401L305 395C298.934 395 287.511 397.202 282.228 393.972C277.236 390.92 277.236 376.08 282.228 373.028C287.511 369.798 298.934 372 305 372L305 366C297.511 366 284.758 363.555 278.055 367.179C270.402 371.317 270.253 394.364 277.133 399.258C283.396 403.711 297.579 401 305 401z"/>
<path style="fill:#5e637e; stroke:none;" d="M305 366L305 373L306 373L305 366z"/>
<path style="fill:#a1a1b9; stroke:none;" d="M307 366L308 367L307 366z"/>
<path style="fill:#f7f7fb; stroke:none;" d="M308 366C310.682 375.309 316.27 384.215 320.375 393C321.658 395.746 323.791 401.294 327.802 400.248C330.951 399.428 332.469 394.566 333.753 392C338.008 383.494 342.347 374.775 346 366C335.1 366.129 330.716 382.075 327 391C322.017 382.462 319.364 366.135 308 366z"/>
<path style="fill:#5e637e; stroke:none;" d="M315 366L316 367L315 366z"/>
<path style="fill:#a1a1b9; stroke:none;" d="M338 366L339 367L338 366z"/>
<path style="fill:#5e637e; stroke:none;" d="M346 366L347 367L346 366M350 366L349 369L350 369L350 366z"/>
<path style="fill:#f7f7fb; stroke:none;" d="M382 401L382 395C376.184 395 362.013 397.574 357.603 393.258C353.738 389.474 356 377.08 356 372L382 372L382 366C375.177 366 357.003 362.751 351.603 367.028C348.522 369.468 350 377.524 350 381C350 385.829 348.884 392.451 351.457 396.786C355.989 404.421 374.402 401 382 401z"/>
<path style="fill:#a1a1b9; stroke:none;" d="M388 366L389 367L388 366z"/>
<path style="fill:#f7f7fb; stroke:none;" d="M388 401L394 401L394 381L395 381C396.817 385.216 403.339 401.216 408.883 400.534C414.159 399.885 419.186 386.335 421 382L422 382L422 401L429 401C429 392.334 429.045 383.666 428.999 375C428.986 372.421 429.516 366.938 425.865 366.466C422.759 366.064 420.989 369.833 419.72 372.005C415.822 378.671 412.254 385.551 408 392C404.906 384.821 400.648 377.577 396.381 371.019C395.098 369.047 392.444 365.185 389.6 367.086C387.198 368.692 388.001 373.571 388 376L388 401z"/>
<path style="fill:#5e637e; stroke:none;" d="M422 366L423 367L422 366z"/>
<path style="fill:#a1a1b9; stroke:none;" d="M229 367L230 368L229 367M237 367L238 368L237 367M276 367L277 368L276 367z"/>
<path style="fill:#5e637e; stroke:none;" d="M307 367L308 368L307 367z"/>
<path style="fill:#a1a1b9; stroke:none;" d="M315 367L316 368L315 367M345 367L346 368L345 367z"/>
<path style="fill:#5e637e; stroke:none;" d="M387 367L387 401L388 401L387 367z"/>
<path style="fill:#a1a1b9; stroke:none;" d="M422 367L423 368L422 367M428 367L429 368L428 367M228 368L229 369L228 368M236 368L237 369L236 368M275 368L276 369L275 368M308 368L309 369L308 368z"/>
<path style="fill:#5e637e; stroke:none;" d="M316 368L317 369L316 368z"/>
<path style="fill:#a1a1b9; stroke:none;" d="M337.333 368.667L337.667 369.333L337.333 368.667z"/>
<path style="fill:#5e637e; stroke:none;" d="M345 368L346 369L345 368M395 368L396 369L395 368M421 368L422 369L421 368M429 368L429 401L430 401L429 368z"/>
<path style="fill:#a1a1b9; stroke:none;" d="M227 369L228 370L227 369M235 369L236 370L235 369z"/>
<path style="fill:#5e637e; stroke:none;" d="M274 369L275 370L274 369M308 369L309 370L308 369z"/>
<path style="fill:#a1a1b9; stroke:none;" d="M316 369L317 370L316 369M344 369L345 370L344 369M349 369L349 393L350 393L349 369M395 369L396 370L395 369z"/>
<path style="fill:#5e637e; stroke:none;" d="M226 370L227 371L226 370M234 370L235 371L234 370z"/>
<path style="fill:#a1a1b9; stroke:none;" d="M309 370L310 371L309 370z"/>
<path style="fill:#5e637e; stroke:none;" d="M336 370L337 371L336 370M344 370L345 371L344 370M396 370L397 371L396 370z"/>
<path style="fill:#a1a1b9; stroke:none;" d="M420 370L421 371L420 370z"/>
<path style="fill:#5e637e; stroke:none;" d="M225 371L226 372L225 371z"/>
<path style="fill:#a1a1b9; stroke:none;" d="M273.333 371.667L273.667 372.333L273.333 371.667z"/>
<path style="fill:#5e637e; stroke:none;" d="M309 371L310 372L309 371z"/>
<path style="fill:#a1a1b9; stroke:none;" d="M317 371L318 372L317 371M336 371L337 372L336 371M343 371L344 372L343 371M396 371L397 372L396 371z"/>
<path style="fill:#5e637e; stroke:none;" d="M419 371L420 372L419 371M224 372L225 373L224 372M233 372L234 373L233 372M265 372L266 373L265 372z"/>
<path style="fill:#a1a1b9; stroke:none;" d="M281 372L281 373L305 373L281 372M310 372L311 373L310 372z"/>
<path style="fill:#5e637e; stroke:none;" d="M335 372L336 373L335 372M343 372L344 373L343 372z"/>
<path style="fill:#a1a1b9; stroke:none;" d="M356 372L356 394L357 394L357 373L382 373L356 372z"/>
<path style="fill:#5e637e; stroke:none;" d="M397 372L398 373L397 372z"/>
<path style="fill:#a1a1b9; stroke:none;" d="M419 372L420 373L419 372z"/>
<path style="fill:#5e637e; stroke:none;" d="M223 373L224 374L223 373z"/>
<path style="fill:#a1a1b9; stroke:none;" d="M233.333 373.667L233.667 374.333L233.333 373.667z"/>
<path style="fill:#5e637e; stroke:none;" d="M280 373L281 374L280 373M310 373L311 374L310 373z"/>
<path style="fill:#a1a1b9; stroke:none;" d="M318.333 373.667L318.667 374.333L318.333 373.667M335 373L336 374L335 373M342 373L343 374L342 373z"/>
<path style="fill:#5e637e; stroke:none;" d="M418 373L419 374L418 373M222 374L223 375L222 374M240 374L241 375L240 374M272 374L272 393L273 393L272 374z"/>
<path style="fill:#a1a1b9; stroke:none;" d="M311 374L312 375L311 374z"/>
<path style="fill:#5e637e; stroke:none;" d="M334 374L335 375L334 374M342 374L343 375L342 374z"/>
<path style="fill:#a1a1b9; stroke:none;" d="M398 374L399 375L398 374M418 374L419 375L418 374z"/>
<path style="fill:#5e637e; stroke:none;" d="M221 375L222 376L221 375z"/>
<path style="fill:#a1a1b9; stroke:none;" d="M279 375L279 392L280 392L279 375z"/>
<path style="fill:#5e637e; stroke:none;" d="M311 375L312 376L311 375z"/>
<path style="fill:#a1a1b9; stroke:none;" d="M319 375L320 376L319 375M334 375L335 376L334 375M341 375L342 376L341 375z"/>
<path style="fill:#5e637e; stroke:none;" d="M399 375L400 376L399 375M417 375L418 376L417 375M220 376L221 377L220 376z"/>
<path style="fill:#a1a1b9; stroke:none;" d="M312 376L313 377L312 376z"/>
<path style="fill:#5e637e; stroke:none;" d="M333 376L334 377L333 376M341 376L342 377L341 376z"/>
<path style="fill:#a1a1b9; stroke:none;" d="M399 376L400 377L399 376z"/>
<path style="fill:#5e637e; stroke:none;" d="M219 377L220 378L219 377M240 377L241 378L240 377M312 377L313 378L312 377z"/>
<path style="fill:#a1a1b9; stroke:none;" d="M320.333 377.667L320.667 378.333L320.333 377.667M333 377L334 378L333 377M340 377L341 378L340 377z"/>
<path style="fill:#5e637e; stroke:none;" d="M400 377L401 378L400 377z"/>
<path style="fill:#a1a1b9; stroke:none;" d="M416 377L417 378L416 377z"/>
<path style="fill:#5e637e; stroke:none;" d="M218 378L219 379L218 378z"/>
<path style="fill:#a1a1b9; stroke:none;" d="M233.333 378.667L233.667 379.333L233.333 378.667M240 378L241 379L240 378M313 378L314 379L313 378z"/>
<path style="fill:#5e637e; stroke:none;" d="M332 378L333 379L332 378M340 378L341 379L340 378z"/>
<path style="fill:#a1a1b9; stroke:none;" d="M400 378L401 379L400 378z"/>
<path style="fill:#5e637e; stroke:none;" d="M415 378L416 379L415 378M217 379L218 380L217 379z"/>
<path style="fill:#a1a1b9; stroke:none;" d="M241 379L242 380L241 379z"/>
<path style="fill:#5e637e; stroke:none;" d="M313 379L314 380L313 379M321 379L322 380L321 379z"/>
<path style="fill:#a1a1b9; stroke:none;" d="M332 379L333 380L332 379M339.333 379.667L339.667 380.333L339.333 379.667z"/>
<path style="fill:#5e637e; stroke:none;" d="M401 379L402 380L401 379z"/>
<path style="fill:#a1a1b9; stroke:none;" d="M415 379L416 380L415 379z"/>
<path style="fill:#5e637e; stroke:none;" d="M202 380L202 387L203 387L202 380M216 380L217 381L216 380M233 380L234 381L233 380z"/>
<path style="fill:#a1a1b9; stroke:none;" d="M259.667 380.333L260.333 380.667L259.667 380.333z"/>
<path style="fill:#5e637e; stroke:none;" d="M261 380L262 381L261 380z"/>
<path style="fill:#a1a1b9; stroke:none;" d="M314 380L315 381L314 380M321 380L322 381L321 380z"/>
<path style="fill:#5e637e; stroke:none;" d="M331 380L332 381L331 380z"/>
<path style="fill:#a1a1b9; stroke:none;" d="M358 380L358 386L359 386L358 380z"/>
<path style="fill:#f7f7fb; stroke:none;" d="M359 380L359 387C366.606 387 378.666 390.164 379 380L359 380z"/>
<path style="fill:#5e637e; stroke:none;" d="M379 380L379 387L380 387L379 380M414 380L415 381L414 380M215 381L216 382L215 381z"/>
<path style="fill:#a1a1b9; stroke:none;" d="M234 381L235 382L234 381M263 381L264 382L263 381z"/>
<path style="fill:#5e637e; stroke:none;" d="M314 381L315 382L314 381M322 381L323 382L322 381z"/>
<path style="fill:#a1a1b9; stroke:none;" d="M331 381L332 382L331 381M338.333 381.667L338.667 382.333L338.333 381.667M394 381L394 401L395 401L394 381M402 381L403 382L402 381M414 381L415 382L414 381z"/>
<path style="fill:#5e637e; stroke:none;" d="M214 382L215 383L214 382M234 382L235 383L234 382z"/>
<path style="fill:#a1a1b9; stroke:none;" d="M264 382L265 383L264 382z"/>
<path style="fill:#5e637e; stroke:none;" d="M265 382L266 383L265 382z"/>
<path style="fill:#a1a1b9; stroke:none;" d="M315 382L316 383L315 382M322 382L323 383L322 382z"/>
<path style="fill:#5e637e; stroke:none;" d="M330 382L331 383L330 382M403 382L404 383L403 382M413 382L414 383L413 382M421 382L422 383L421 382M213 383L214 384L213 383M235 383L236 384L235 383M315 383L316 384L315 383M323 383L324 384L323 383z"/>
<path style="fill:#a1a1b9; stroke:none;" d="M330 383L331 384L330 383z"/>
<path style="fill:#5e637e; stroke:none;" d="M395 383L396 384L395 383z"/>
<path style="fill:#a1a1b9; stroke:none;" d="M403 383L404 384L403 383M420 383L421 384L420 383z"/>
<path style="fill:#5e637e; stroke:none;" d="M214 384L215 385L214 384M236 384L237 385L236 384z"/>
<path style="fill:#a1a1b9; stroke:none;" d="M266 384L267 385L266 384M316 384L317 385L316 384M323 384L324 385L323 384z"/>
<path style="fill:#5e637e; stroke:none;" d="M329 384L330 385L329 384z"/>
<path style="fill:#a1a1b9; stroke:none;" d="M337 384L338 385L337 384M396 384L397 385L396 384z"/>
<path style="fill:#5e637e; stroke:none;" d="M404 384L405 385L404 384z"/>
<path style="fill:#a1a1b9; stroke:none;" d="M412 384L413 385L412 384z"/>
<path style="fill:#5e637e; stroke:none;" d="M420 384L421 385L420 384M215 385L216 386L215 385z"/>
<path style="fill:#a1a1b9; stroke:none;" d="M238 385L239 386L238 385M267.333 385.667L267.667 386.333L267.333 385.667z"/>
<path style="fill:#5e637e; stroke:none;" d="M316 385L317 386L316 385M324 385L325 386L324 385z"/>
<path style="fill:#a1a1b9; stroke:none;" d="M329 385L330 386L329 385M404 385L405 386L404 385z"/>
<path style="fill:#5e637e; stroke:none;" d="M411 385L412 386L411 385z"/>
<path style="fill:#a1a1b9; stroke:none;" d="M419 385L420 386L419 385z"/>
<path style="fill:#5e637e; stroke:none;" d="M216 386L217 387L216 386M240 386L241 387L240 386z"/>
<path style="fill:#a1a1b9; stroke:none;" d="M241 386L242 387L241 386M317 386L318 387L317 386M324 386L325 387L324 386z"/>
<path style="fill:#5e637e; stroke:none;" d="M328 386L329 387L328 386z"/>
<path style="fill:#a1a1b9; stroke:none;" d="M336 386L337 387L336 386z"/>
<path style="fill:#5e637e; stroke:none;" d="M358 386L359 387L358 386z"/>
<path style="fill:#a1a1b9; stroke:none;" d="M378 386L379 387L378 386z"/>
<path style="fill:#5e637e; stroke:none;" d="M397 386L398 387L397 386M405 386L406 387L405 386z"/>
<path style="fill:#a1a1b9; stroke:none;" d="M411 386L412 387L411 386z"/>
<path style="fill:#5e637e; stroke:none;" d="M419 386L420 387L419 386M207 387L208 388L207 387M217 387L218 388L217 387z"/>
<path style="fill:#a1a1b9; stroke:none;" d="M260 387L261 388L260 387z"/>
<path style="fill:#5e637e; stroke:none;" d="M268 387L269 388L268 387M317 387L318 388L317 387M325 387L326 388L325 387z"/>
<path style="fill:#a1a1b9; stroke:none;" d="M328 387L329 388L328 387M398 387L399 388L398 387z"/>
<path style="fill:#5e637e; stroke:none;" d="M406 387L407 388L406 387M410 387L411 388L410 387z"/>
<path style="fill:#a1a1b9; stroke:none;" d="M418 387L419 388L418 387z"/>
<path style="fill:#5e637e; stroke:none;" d="M208 388L209 389L208 388M218 388L219 389L218 388z"/>
<path style="fill:#a1a1b9; stroke:none;" d="M261.333 388.667L261.667 389.333L261.333 388.667M268 388L268 393L269 393L268 388M325 388L326 389L325 388z"/>
<path style="fill:#5e637e; stroke:none;" d="M327 388L326 390L327 388z"/>
<path style="fill:#a1a1b9; stroke:none;" d="M335 388L336 389L335 388z"/>
<path style="fill:#5e637e; stroke:none;" d="M398 388L399 389L398 388z"/>
<path style="fill:#a1a1b9; stroke:none;" d="M406 388L407 389L406 388M410 388L411 389L410 388z"/>
<path style="fill:#5e637e; stroke:none;" d="M209 389L210 390L209 389M219 389L220 390L219 389M318 389L319 390L318 389z"/>
<path style="fill:#a1a1b9; stroke:none;" d="M327 389L328 390L327 389M399 389L400 390L399 389z"/>
<path style="fill:#5e637e; stroke:none;" d="M407 389L408 390L407 389z"/>
<path style="fill:#a1a1b9; stroke:none;" d="M409 389L410 390L409 389z"/>
<path style="fill:#5e637e; stroke:none;" d="M417 389L418 390L417 389M210 390L211 391L210 390M220 390L221 391L220 390M261.333 390.667L261.667 391.333L261.333 390.667z"/>
<path style="fill:#a1a1b9; stroke:none;" d="M319.333 390.667L319.667 391.333L319.333 390.667M326 390L327 391L326 390M334 390L335 391L334 390z"/>
<path style="fill:#5e637e; stroke:none;" d="M399 390L400 391L399 390z"/>
<path style="fill:#a1a1b9; stroke:none;" d="M407 390L408 391L407 390M416 390L417 391L416 390z"/>
<path style="fill:#5e637e; stroke:none;" d="M211 391L212 392L211 391M221 391L222 392L221 391z"/>
<path style="fill:#a1a1b9; stroke:none;" d="M400 391L401 392L400 391M408 391L409 392L408 391z"/>
<path style="fill:#5e637e; stroke:none;" d="M416 391L417 392L416 391M212 392L213 393L212 392M222 392L223 393L222 392z"/>
<path style="fill:#a1a1b9; stroke:none;" d="M261 392L262 393L261 392M333 392L334 393L333 392M401 392L402 393L401 392M415 392L416 393L415 392z"/>
<path style="fill:#5e637e; stroke:none;" d="M213 393L214 394L213 393M223 393L224 394L223 393M260 393L261 394L260 393M268 393L269 394L268 393M280 393L281 394L280 393M320 393L321 394L320 393M333 393L334 394L333 393M349.333 393.667L349.667 394.333L349.333 393.667M401 393L402 394L401 393M415 393L416 394L415 393M214 394L215 395L214 394M224 394L225 395L224 394M233 394L234 395L233 394z"/>
<path style="fill:#a1a1b9; stroke:none;" d="M234 394L234 395L260 395L234 394M273.333 394.667L273.667 395.333L273.333 394.667M281 394L281 395L305 395L281 394z"/>
<path style="fill:#5e637e; stroke:none;" d="M305 394L305 401L306 401L305 394z"/>
<path style="fill:#a1a1b9; stroke:none;" d="M332 394L333 395L332 394M358 394L358 395L382 395L358 394M402 394L403 395L402 394M414 394L415 395L414 394z"/>
<path style="fill:#5e637e; stroke:none;" d="M215 395L216 396L215 395z"/>
<path style="fill:#a1a1b9; stroke:none;" d="M225 395L226 396L225 395M233 395L233 401L234 401L233 395M267 395L268 396L267 395M321 395L322 396L321 395z"/>
<path style="fill:#5e637e; stroke:none;" d="M332 395L333 396L332 395z"/>
<path style="fill:#a1a1b9; stroke:none;" d="M350.333 395.667L350.667 396.333L350.333 395.667z"/>
<path style="fill:#5e637e; stroke:none;" d="M402 395L403 396L402 395M414 395L415 396L414 395M216 396L217 397L216 396z"/>
<path style="fill:#a1a1b9; stroke:none;" d="M226 396L227 397L226 396z"/>
<path style="fill:#5e637e; stroke:none;" d="M267 396L268 397L267 396M273 396L274 397L273 396M321 396L322 397L321 396z"/>
<path style="fill:#a1a1b9; stroke:none;" d="M331 396L332 397L331 396M403 396L404 397L403 396z"/>
<path style="fill:#5e637e; stroke:none;" d="M413 396L414 397L413 396M217 397L218 398L217 397z"/>
<path style="fill:#a1a1b9; stroke:none;" d="M227 397L228 398L227 397z"/>
<path style="fill:#5e637e; stroke:none;" d="M266 397L267 398L266 397z"/>
<path style="fill:#a1a1b9; stroke:none;" d="M274 397L275 398L274 397M322 397L323 398L322 397z"/>
<path style="fill:#5e637e; stroke:none;" d="M331 397L332 398L331 397z"/>
<path style="fill:#a1a1b9; stroke:none;" d="M351 397L352 398L351 397z"/>
<path style="fill:#5e637e; stroke:none;" d="M403 397L404 398L403 397z"/>
<path style="fill:#a1a1b9; stroke:none;" d="M412 397L413 398L412 397z"/>
<path style="fill:#5e637e; stroke:none;" d="M218 398L219 399L218 398z"/>
<path style="fill:#a1a1b9; stroke:none;" d="M228 398L229 399L228 398z"/>
<path style="fill:#5e637e; stroke:none;" d="M265 398L266 399L265 398z"/>
<path style="fill:#a1a1b9; stroke:none;" d="M275 398L276 399L275 398z"/>
<path style="fill:#5e637e; stroke:none;" d="M322 398L323 399L322 398z"/>
<path style="fill:#a1a1b9; stroke:none;" d="M330 398L331 399L330 398z"/>
<path style="fill:#5e637e; stroke:none;" d="M351 398L352 399L351 398z"/>
<path style="fill:#a1a1b9; stroke:none;" d="M404 398L405 399L404 398z"/>
<path style="fill:#5e637e; stroke:none;" d="M412 398L413 399L412 398M219 399L220 400L219 399z"/>
<path style="fill:#a1a1b9; stroke:none;" d="M229 399L230 400L229 399M263 399L264 400L263 399z"/>
<path style="fill:#5e637e; stroke:none;" d="M264 399L265 400L264 399M276 399L277 400L276 399z"/>
<path style="fill:#a1a1b9; stroke:none;" d="M323 399L324 400L323 399z"/>
<path style="fill:#5e637e; stroke:none;" d="M330 399L331 400L330 399z"/>
<path style="fill:#a1a1b9; stroke:none;" d="M353 399L354 400L353 399M405 399L406 400L405 399M411 399L412 400L411 399z"/>
<path style="fill:#5e637e; stroke:none;" d="M220 400L221 401L220 400z"/>
<path style="fill:#a1a1b9; stroke:none;" d="M230 400L231 401L230 400M261 400L262 401L261 400z"/>
<path style="fill:#5e637e; stroke:none;" d="M262 400L263 401L262 400M278 400L279 401L278 400z"/>
<path style="fill:#a1a1b9; stroke:none;" d="M324 400L325 401L324 400z"/>
<path style="fill:#5e637e; stroke:none;" d="M329 400L330 401L329 400M354 400L355 401L354 400z"/>
<path style="fill:#a1a1b9; stroke:none;" d="M355 400L356 401L355 400z"/>
<path style="fill:#5e637e; stroke:none;" d="M405 400L406 401L405 400z"/>
<path style="fill:#a1a1b9; stroke:none;" d="M325 401L325 402L328 402L325 401z"/>
<path style="fill:#5e637e; stroke:none;" d="M328 401L329 402L328 401M406 401L407 402L406 401z"/>
<path style="fill:#a1a1b9; stroke:none;" d="M407 401L407 402L410 402L407 401z"/>
<path style="fill:#5e637e; stroke:none;" d="M237 467L238 467L238 450L250 450C235.903 444.085 237 457.363 237 467M258 449L259 450L258 449z"/>
<path style="fill:#a1a1b9; stroke:none;" d="M259 449L258 456L259 456L263 450L259 449z"/>
<path style="fill:#5e637e; stroke:none;" d="M263 449L264 450L263 449M269 452L270 452L284 450C279.637 448.169 271.771 447.725 269 452M288 467L289 467L289 450L297 450C285.595 445.226 288 460.157 288 467M329 449L329 450L333 451L333 450L329 449M342 449L342 450L347 450L342 449M360.667 449.333L361.333 449.667L360.667 449.333z"/>
<path style="fill:#a1a1b9; stroke:none;" d="M362 449L361 452L362 452L362 449z"/>
<path style="fill:#5e637e; stroke:none;" d="M363 449L364 450L363 449M378.667 449.333L379.333 449.667L378.667 449.333z"/>
<path style="fill:#a1a1b9; stroke:none;" d="M380 449L379 452L380 452L380 449z"/>
<path style="fill:#5e637e; stroke:none;" d="M381 449L382 450L381 449z"/>
<path style="fill:#a1a1b9; stroke:none;" d="M238 450L238 464L239 464L238 450z"/>
<path style="fill:#f7f7fb; stroke:none;" d="M239 450C239 454.809 236.934 463.927 241 467L241 450L239 450z"/>
<path style="fill:#a1a1b9; stroke:none;" d="M241 450L241 467L242 467L241 450z"/>
<path style="fill:#f7f7fb; stroke:none;" d="M242 450L242 452L249 452L249 450L242 450z"/>
<path style="fill:#a1a1b9; stroke:none;" d="M249.333 450.667L249.667 451.333L249.333 450.667z"/>
<path style="fill:#5e637e; stroke:none;" d="M256 450L255 453L256 453L256 450z"/>
<path style="fill:#a1a1b9; stroke:none;" d="M257 450L256 452L257 450z"/>
<path style="fill:#f7f7fb; stroke:none;" d="M260 459L260 450C255.407 452.534 255.659 456.335 260 459M261 450L261 452L264 452L264 450L261 450z"/>
<path style="fill:#a1a1b9; stroke:none;" d="M264.333 450.667L264.667 451.333L264.333 450.667z"/>
<path style="fill:#5e637e; stroke:none;" d="M265 450L266 451L265 450z"/>
<path style="fill:#f7f7fb; stroke:none;" d="M270 450L270 451L275 452L275 467L278 467L278 452L283 451L270 450z"/>
<path style="fill:#a1a1b9; stroke:none;" d="M283 450L282 452L283 450z"/>
<path style="fill:#f7f7fb; stroke:none;" d="M289 450L289 467L292 467L292 450L289 450z"/>
<path style="fill:#a1a1b9; stroke:none;" d="M292.333 450.667L292.667 451.333L292.333 450.667z"/>
<path style="fill:#f7f7fb; stroke:none;" d="M293 450L293 452C301.712 453.779 301.712 463.221 293 465L293 467C305.59 466.31 305.699 450.696 293 450z"/>
<path style="fill:#a1a1b9; stroke:none;" d="M298 450L299 451L298 450z"/>
<path style="fill:#5e637e; stroke:none;" d="M299 450L300 451L299 450M327 450L325 456L326 456L327 450z"/>
<path style="fill:#a1a1b9; stroke:none;" d="M328 450L325 454L328 450z"/>
<path style="fill:#f7f7fb; stroke:none;" d="M325 455L329 455L329 467L332 467L332 450L325 455z"/>
<path style="fill:#5e637e; stroke:none;" d="M340 450L341 451L340 450z"/>
<path style="fill:#f7f7fb; stroke:none;" d="M343 461C341.748 456.833 341.419 454.648 344 451C337.43 450.894 338.348 458.435 343 461z"/>
<path style="fill:#a1a1b9; stroke:none;" d="M343 450L347 457L348 457L343 450z"/>
<path style="fill:#f7f7fb; stroke:none;" d="M345 450C346.329 453.618 347.631 455.851 345 459L345 460L345 461L347 464L340 465L340 467C349.422 466.694 354.28 454.87 345 450z"/>
<path style="fill:#a1a1b9; stroke:none;" d="M347 450L349 454L350 454L347 450z"/>
<path style="fill:#5e637e; stroke:none;" d="M348 450L349 451L348 450M357 450L356 452L357 450z"/>
<path style="fill:#a1a1b9; stroke:none;" d="M358 450L356 453L358 450z"/>
<path style="fill:#f7f7fb; stroke:none;" d="M361 461C358.92 456.533 359.262 454.579 361 450C355.628 452.71 354.572 458.97 361 461M362 450C364.209 454.644 364.209 456.356 362 461L365 462L358 465L358 467C367.182 466.701 371.653 452.93 362 450z"/>
<path style="fill:#a1a1b9; stroke:none;" d="M365 450L366 451L365 450z"/>
<path style="fill:#5e637e; stroke:none;" d="M375 450L374 452L375 450z"/>
<path style="fill:#a1a1b9; stroke:none;" d="M376 450L374 453L376 450z"/>
<path style="fill:#f7f7fb; stroke:none;" d="M379 461C376.92 456.533 377.262 454.579 379 450C373.628 452.71 372.572 458.97 379 461M380 450C382.209 454.644 382.209 456.356 380 461L383 460C381.135 463.7 379.089 464.692 375 465C384.322 472.016 389.69 452.942 380 450z"/>
<path style="fill:#5e637e; stroke:none;" d="M383 450L384 451L383 450z"/>
<path style="fill:#a1a1b9; stroke:none;" d="M270 451L271 452L270 451z"/>
<path style="fill:#5e637e; stroke:none;" d="M283 451L284 452L283 451z"/>
<path style="fill:#a1a1b9; stroke:none;" d="M300 451L301 452L300 451M332 451L333 452L332 451M339 451L340 452L339 451z"/>
<path style="fill:#5e637e; stroke:none;" d="M349 451L350 452L349 451z"/>
<path style="fill:#a1a1b9; stroke:none;" d="M366 451L367 452L366 451z"/>
<path style="fill:#5e637e; stroke:none;" d="M384 451L385 452L384 451M263 452L264 453L263 452M274 452L274 467L275 467L274 452M278 452L278 467L279 467L278 452M292 452L292 465L293 465L292 452z"/>
<path style="fill:#171749; stroke:none;" d="M293 452L293 465C300.591 462.904 300.61 454.208 293 452z"/>
<path style="fill:#5e637e; stroke:none;" d="M296 452L297 453L296 452z"/>
<path style="fill:#a1a1b9; stroke:none;" d="M301 452L302 453L301 452z"/>
<path style="fill:#5e637e; stroke:none;" d="M332 452L332 467L333 467L332 452M338 452L338 459L339 459L338 452z"/>
<path style="fill:#a1a1b9; stroke:none;" d="M342 452L341 454L342 452z"/>
<path style="fill:#171749; stroke:none;" d="M343 452L343 459L345 459L345 452L343 452z"/>
<path style="fill:#5e637e; stroke:none;" d="M360 452L359 454L360 452z"/>
<path style="fill:#171749; stroke:none;" d="M361 452C359.378 455.491 359.565 457.085 363 459L361 452z"/>
<path style="fill:#5e637e; stroke:none;" d="M362 452L364 454L362 452z"/>
<path style="fill:#a1a1b9; stroke:none;" d="M363 452L364 453L363 452z"/>
<path style="fill:#5e637e; stroke:none;" d="M367 452L368 453L367 452M378 452L377 454L378 452z"/>
<path style="fill:#171749; stroke:none;" d="M379 452L378 459C382.23 457.591 381.913 454.885 379 452z"/>
<path style="fill:#5e637e; stroke:none;" d="M380 452L382 454L380 452z"/>
<path style="fill:#a1a1b9; stroke:none;" d="M381 452L382 453L381 452z"/>
<path style="fill:#5e637e; stroke:none;" d="M385 452L386 453L385 452z"/>
<path style="fill:#a1a1b9; stroke:none;" d="M255 453L255 456L256 456L255 453z"/>
<path style="fill:#5e637e; stroke:none;" d="M297 453L299 461L300 461L297 453z"/>
<path style="fill:#a1a1b9; stroke:none;" d="M298 453L299 454L298 453z"/>
<path style="fill:#5e637e; stroke:none;" d="M302 453L303 462L304 462L302 453z"/>
<path style="fill:#a1a1b9; stroke:none;" d="M338 453L338 458L339 458L338 453z"/>
<path style="fill:#5e637e; stroke:none;" d="M350 453L350 462L351 462L350 453M355.333 453.667L355.667 454.333L355.333 453.667z"/>
<path style="fill:#a1a1b9; stroke:none;" d="M364.333 453.667L364.667 454.333L364.333 453.667M367 453L367 462L368 462L367 453z"/>
<path style="fill:#5e637e; stroke:none;" d="M373 453L374 454L373 453z"/>
<path style="fill:#a1a1b9; stroke:none;" d="M382.333 453.667L382.667 454.333L382.333 453.667M385 453L385 461L386 461L385 453M299 454L300 455L299 454M302 454L303 455L302 454z"/>
<path style="fill:#5e637e; stroke:none;" d="M341 454L341 458L342 458L341 454M346 454L345 459L346 459L346 454z"/>
<path style="fill:#a1a1b9; stroke:none;" d="M358 454L359 459L360 459L358 454M373 454L373 457L374 457L373 454M376 454L377 459L378 459L376 454z"/>
<path style="fill:#5e637e; stroke:none;" d="M259 455L260 456L259 455z"/>
<path style="fill:#a1a1b9; stroke:none;" d="M326 455L326 456L329 456L326 455M355 455L356 456L355 455z"/>
<path style="fill:#5e637e; stroke:none;" d="M364 455L363 458L364 455M368 455L368 459L369 459L368 455M382 455L383 456L382 455M255 456L256 457L255 456M260 456L261 457L260 456M328 456L328 467L329 467L328 456M355 456L356 460L357 460L355 456z"/>
<path style="fill:#a1a1b9; stroke:none;" d="M382.333 456.667L382.667 457.333L382.333 456.667z"/>
<path style="fill:#f7f7fb; stroke:none;" d="M242 457L242 459L248 459L248 457L242 457z"/>
<path style="fill:#a1a1b9; stroke:none;" d="M248.333 457.667L248.667 458.333L248.333 457.667z"/>
<path style="fill:#5e637e; stroke:none;" d="M249.333 457.667L249.667 458.333L249.333 457.667M256 457L257 458L256 457z"/>
<path style="fill:#a1a1b9; stroke:none;" d="M260 457L260 460L261 460L262 457L260 457z"/>
<path style="fill:#5e637e; stroke:none;" d="M262 457L263 458L262 457M359 457L360 458L359 457z"/>
<path style="fill:#a1a1b9; stroke:none;" d="M364 457L365 458L364 457z"/>
<path style="fill:#5e637e; stroke:none;" d="M373 457L374 458L373 457M377 457L378 458L377 457M257 458L258 459L257 458z"/>
<path style="fill:#a1a1b9; stroke:none;" d="M258 458L259 459L258 458z"/>
<path style="fill:#f7f7fb; stroke:none;" d="M261 458L261 467C265.498 464.518 265.498 460.482 261 458z"/>
<path style="fill:#a1a1b9; stroke:none;" d="M263 458L265 464L266 464L263 458z"/>
<path style="fill:#5e637e; stroke:none;" d="M264 458L265 459L264 458M342 458L343 459L342 458z"/>
<path style="fill:#a1a1b9; stroke:none;" d="M346 458L347 459L346 458M356 458L357 459L356 458z"/>
<path style="fill:#5e637e; stroke:none;" d="M360 458L361 459L360 458z"/>
<path style="fill:#a1a1b9; stroke:none;" d="M363 458L364 459L363 458M374 458L375 459L374 458M381 458L382 459L381 458z"/>
<path style="fill:#5e637e; stroke:none;" d="M242 459L242 460L249 460L242 459M259 459L260 460L259 459M265 459L266 460L265 459z"/>
<path style="fill:#a1a1b9; stroke:none;" d="M339 459L341 461L339 459M343 459L343 462L345 459L343 459M361 459L360 462L361 459z"/>
<path style="fill:#5e637e; stroke:none;" d="M374 459L375 460L374 459z"/>
<path style="fill:#a1a1b9; stroke:none;" d="M379 459L378 462L379 459z"/>
<path style="fill:#5e637e; stroke:none;" d="M261 460L262 461L261 460M339 460L340 461L339 460M357 460L358 461L357 460M375 460L376 461L375 460z"/>
<path style="fill:#a1a1b9; stroke:none;" d="M382 460L381 464L382 464L382 460M262 461L263 462L262 461z"/>
<path style="fill:#5e637e; stroke:none;" d="M266.333 461.667L266.667 462.333L266.333 461.667z"/>
<path style="fill:#a1a1b9; stroke:none;" d="M299 461L298 464L299 461M302.333 461.667L302.667 462.333L302.333 461.667z"/>
<path style="fill:#5e637e; stroke:none;" d="M341.667 461.333L342.333 461.667L341.667 461.333M344 461L344 462L347 462L344 461z"/>
<path style="fill:#a1a1b9; stroke:none;" d="M349.333 461.667L349.667 462.333L349.333 461.667z"/>
<path style="fill:#5e637e; stroke:none;" d="M359 461L360 462L359 461M361 461L361 462L363 464L364 464L361 461z"/>
<path style="fill:#a1a1b9; stroke:none;" d="M364.333 461.667L364.667 462.333L364.333 461.667z"/>
<path style="fill:#5e637e; stroke:none;" d="M377 461L378 462L377 461M379 461L379 462L382 463L379 461M385.333 461.667L385.667 462.333L385.333 461.667M262 462L263 463L262 462M298 462L299 463L298 462z"/>
<path style="fill:#a1a1b9; stroke:none;" d="M346.333 462.667L346.667 463.333L346.333 462.667z"/>
<path style="fill:#5e637e; stroke:none;" d="M367 462L368 463L367 462z"/>
<path style="fill:#a1a1b9; stroke:none;" d="M262 463L263 464L262 463z"/>
<path style="fill:#5e637e; stroke:none;" d="M302 463L303 464L302 463M309.667 463.333L310.333 463.667L309.667 463.333M345 463L346 464L345 463M349 463L350 464L349 463z"/>
<path style="fill:#a1a1b9; stroke:none;" d="M366 463L367 464L366 463M384 463L385 464L384 463z"/>
<path style="fill:#5e637e; stroke:none;" d="M242 464L242 465L250 465L242 464z"/>
<path style="fill:#a1a1b9; stroke:none;" d="M255 464L257 467L255 464z"/>
<path style="fill:#f7f7fb; stroke:none;" d="M256 464L260 467L256 464z"/>
<path style="fill:#a1a1b9; stroke:none;" d="M258 464L259 465L258 464z"/>
<path style="fill:#5e637e; stroke:none;" d="M259.667 464.333L260.333 464.667L259.667 464.333z"/>
<path style="fill:#a1a1b9; stroke:none;" d="M261 464L262 465L261 464z"/>
<path style="fill:#5e637e; stroke:none;" d="M265 464L266 465L265 464M295 464L296 465L295 464z"/>
<path style="fill:#a1a1b9; stroke:none;" d="M296 464L297 465L296 464M301 464L302 465L301 464M308.333 464.667L308.667 465.333L308.333 464.667z"/>
<path style="fill:#f7f7fb; stroke:none;" d="M309 464L309 467L312 466L312 465L309 464z"/>
<path style="fill:#a1a1b9; stroke:none;" d="M311 464L312 465L311 464z"/>
<path style="fill:#5e637e; stroke:none;" d="M312 464L312 467L313 467L312 464M339 464L340 465L339 464z"/>
<path style="fill:#a1a1b9; stroke:none;" d="M340.667 464.333L341.333 464.667L340.667 464.333z"/>
<path style="fill:#5e637e; stroke:none;" d="M342.667 464.333L343.333 464.667L342.667 464.333z"/>
<path style="fill:#a1a1b9; stroke:none;" d="M344 464L345 465L344 464M348 464L346 467L348 464M357 464L357 467L358 467L359 464L357 464z"/>
<path style="fill:#5e637e; stroke:none;" d="M359 464L359 465L362 465L359 464z"/>
<path style="fill:#a1a1b9; stroke:none;" d="M362 464L363 465L362 464z"/>
<path style="fill:#5e637e; stroke:none;" d="M366 464L367 465L366 464z"/>
<path style="fill:#a1a1b9; stroke:none;" d="M375.667 464.333L376.333 464.667L375.667 464.333z"/>
<path style="fill:#5e637e; stroke:none;" d="M377 464L377 465L380 465L377 464z"/>
<path style="fill:#a1a1b9; stroke:none;" d="M380 464L381 465L380 464z"/>
<path style="fill:#5e637e; stroke:none;" d="M384 464L385 465L384 464z"/>
<path style="fill:#a1a1b9; stroke:none;" d="M238.333 465.667L238.667 466.333L238.333 465.667z"/>
<path style="fill:#f7f7fb; stroke:none;" d="M242 465L242 467L249 467L249 465L242 465z"/>
<path style="fill:#a1a1b9; stroke:none;" d="M249.333 465.667L249.667 466.333L249.333 465.667M260.333 465.667L260.667 466.333L260.333 465.667M264 465L265 466L264 465M292.333 465.667L292.667 466.333L292.333 465.667M300 465L301 466L300 465M339.333 465.667L339.667 466.333L339.333 465.667z"/>
<path style="fill:#5e637e; stroke:none;" d="M348 465L349 466L348 465M356.333 465.667L356.667 466.333L356.333 465.667z"/>
<path style="fill:#a1a1b9; stroke:none;" d="M365 465L366 466L365 465z"/>
<path style="fill:#5e637e; stroke:none;" d="M374.333 465.667L374.667 466.333L374.333 465.667z"/>
<path style="fill:#a1a1b9; stroke:none;" d="M383 465L384 466L383 465z"/>
<path style="fill:#5e637e; stroke:none;" d="M255 466L256 467L255 466M263 466L264 467L263 466z"/>
<path style="fill:#a1a1b9; stroke:none;" d="M298 466L299 467L298 466z"/>
<path style="fill:#5e637e; stroke:none;" d="M299 466L300 467L299 466M308 466L309 467L308 466z"/>
<path style="fill:#a1a1b9; stroke:none;" d="M311 466L312 467L311 466z"/>
<path style="fill:#5e637e; stroke:none;" d="M347 466L348 467L347 466M364 466L365 467L364 466z"/>
<path style="fill:#a1a1b9; stroke:none;" d="M375 466L376 467L375 466z"/>
<path style="fill:#5e637e; stroke:none;" d="M382 466L383 467L382 466M343.667 467.333L344.333 467.667L343.667 467.333M360.667 467.333L361.333 467.667L360.667 467.333M378.667 467.333L379.333 467.667L378.667 467.333z"/>
</svg>
